<?xml version="1.0" standalone="no"?>
<!DOCTYPE svg PUBLIC "-//W3C//DTD SVG 20010904//EN"
 "http://www.w3.org/TR/2001/REC-SVG-20010904/DTD/svg10.dtd">
<svg version="1.0" xmlns="http://www.w3.org/2000/svg"
 width="892.000000pt" height="892.000000pt" viewBox="0 0 892.000000 892.000000"
 preserveAspectRatio="xMidYMid meet">
<metadata>
Created by potrace 1.14, written by Peter Selinger 2001-2017
</metadata>
<g transform="translate(0.000000,892.000000) scale(0.100000,-0.100000)"
fill="#000000" stroke="none">
<path d="M7808 7924 c-3 -3 -21 -7 -39 -9 -126 -14 -291 -82 -415 -171 -72
-52 -214 -191 -214 -211 0 -7 -4 -13 -9 -13 -10 0 -77 -111 -108 -181 -17 -36
-52 -140 -58 -169 0 -3 -4 -21 -8 -40 -4 -19 -9 -46 -12 -60 -6 -29 -6 -212
-1 -250 11 -75 17 -101 34 -157 11 -34 17 -65 14 -68 -3 -3 0 -5 6 -5 7 0 12
-6 12 -14 0 -17 56 -128 95 -186 35 -52 58 -81 102 -128 l31 -33 -49 -85 c-27
-47 -49 -90 -49 -95 0 -5 -4 -9 -10 -9 -5 0 -10 -4 -10 -9 0 -5 -40 -80 -90
-166 -49 -86 -90 -161 -90 -166 0 -5 -4 -9 -8 -9 -4 0 -13 -12 -19 -27 -7 -16
-24 -48 -39 -73 -47 -78 -84 -144 -97 -170 -6 -14 -14 -27 -18 -30 -3 -3 -9
-12 -12 -20 -4 -8 -18 -33 -30 -55 -73 -125 -223 -385 -239 -415 -11 -19 -32
-57 -49 -85 -16 -27 -33 -59 -39 -70 -5 -11 -21 -38 -34 -60 -14 -22 -31 -51
-39 -65 -103 -189 -113 -203 -137 -190 -32 17 -100 24 -245 24 -112 0 -157 -5
-225 -23 -96 -25 -196 -68 -285 -122 -44 -26 -63 -33 -71 -25 -6 6 -33 29 -59
51 -27 22 -60 50 -73 63 -14 12 -28 22 -31 22 -3 0 -22 15 -41 33 -19 18 -78
68 -130 111 -100 82 -174 144 -194 161 -6 6 -92 78 -191 160 -99 82 -185 154
-191 160 -7 5 -29 24 -49 40 -21 17 -43 35 -49 40 -6 6 -49 42 -96 80 -47 38
-91 75 -97 82 -7 6 -74 62 -148 124 -74 61 -135 114 -135 116 0 2 7 17 15 33
8 15 26 67 39 114 110 377 -13 774 -319 1035 -72 61 -176 121 -300 172 -25 11
-129 38 -175 46 -62 11 -283 7 -344 -6 -205 -45 -379 -140 -516 -282 -85 -89
-105 -114 -145 -184 -16 -27 -32 -52 -35 -55 -3 -3 -7 -14 -8 -25 -2 -11 -7
-22 -12 -25 -11 -7 -59 -150 -65 -196 -4 -22 -9 -48 -12 -59 -10 -33 -11 -232
-2 -282 15 -80 17 -87 24 -118 33 -141 133 -316 255 -444 28 -29 50 -57 48
-60 -2 -4 -254 -510 -562 -1124 -550 -1100 -559 -1117 -585 -1111 -14 3 -37 7
-51 9 -37 6 -231 6 -260 0 -14 -3 -36 -8 -50 -10 -49 -9 -135 -32 -165 -44
-311 -129 -539 -381 -611 -676 -8 -33 -17 -69 -20 -80 -3 -11 -7 -76 -9 -145
-5 -186 26 -325 109 -485 22 -44 43 -82 46 -85 3 -3 22 -27 42 -55 114 -157
314 -295 513 -354 105 -31 129 -34 265 -35 134 -1 187 5 262 27 26 8 49 12 52
9 4 -3 6 0 6 6 0 7 3 11 7 10 13 -4 103 33 167 69 116 65 251 185 313 277 15
23 30 43 33 46 3 3 10 14 16 25 6 11 22 40 36 65 50 92 93 234 102 345 3 28 5
52 6 55 4 12 2 81 -4 150 -19 214 -123 435 -279 594 l-55 55 19 36 c10 19 19
41 19 49 0 8 4 16 8 18 10 4 202 389 202 405 0 6 4 13 8 15 8 3 632 1249 632
1262 0 4 5 12 10 19 6 7 59 109 118 227 89 178 111 215 127 213 11 -1 38 -5
60 -9 57 -8 201 -9 260 0 62 9 185 41 233 62 20 8 38 15 40 14 3 -1 83 44 132
75 l41 26 47 -38 c66 -53 92 -75 118 -98 12 -12 37 -32 55 -45 18 -14 37 -30
43 -35 11 -10 171 -144 209 -175 10 -8 28 -23 40 -33 12 -11 42 -35 66 -55 25
-21 52 -44 61 -52 14 -13 153 -127 188 -155 7 -5 21 -17 30 -26 9 -9 62 -53
117 -98 55 -46 118 -98 140 -116 22 -19 76 -64 120 -101 44 -36 91 -76 105
-88 14 -11 47 -39 75 -61 91 -74 88 -65 58 -137 -14 -34 -26 -69 -28 -78 -2
-8 -8 -35 -15 -60 -22 -90 -30 -247 -16 -350 38 -288 214 -559 464 -713 50
-31 98 -57 105 -57 7 0 17 -4 23 -9 9 -10 113 -46 155 -55 13 -3 35 -8 49 -11
58 -14 239 -24 246 -14 2 5 11 6 19 3 7 -3 51 2 98 10 375 71 674 344 776 708
30 108 34 141 34 273 0 162 -30 292 -101 435 -23 48 -65 114 -74 118 -5 2 -8
9 -8 15 0 7 -15 28 -33 48 -82 92 -81 91 -67 113 8 12 83 142 167 291 85 148
159 275 165 282 6 7 7 13 4 13 -4 0 -2 6 4 13 12 13 109 177 107 180 0 1 6 13
15 27 25 40 218 379 256 450 19 36 41 72 48 81 8 8 14 18 14 21 0 4 32 62 71
130 39 67 80 139 91 158 37 64 72 125 73 127 1 3 56 -7 135 -22 33 -7 219 -7
250 0 13 2 42 7 64 11 50 7 198 53 211 65 5 5 15 9 22 9 8 0 19 5 26 10 7 6
40 27 74 48 212 126 389 365 442 597 6 28 14 61 18 75 3 14 7 85 8 158 2 99
-2 152 -16 208 -22 93 -49 176 -60 188 -5 6 -9 16 -9 22 0 16 -70 138 -82 142
-4 2 -8 10 -8 18 0 20 -224 244 -244 244 -9 0 -16 4 -16 8 0 12 -141 85 -222
116 -38 14 -68 23 -68 21 0 -3 -12 0 -27 6 -16 6 -41 13 -58 15 -52 8 -291 14
-297 8z"/>
</g>
</svg>
